<?xml version="1.0" encoding="UTF-8" standalone="no"?>
<!-- Created with Inkscape (http://www.inkscape.org/) -->

<svg
   xmlns:dc="http://purl.org/dc/elements/1.1/"
   xmlns:cc="http://creativecommons.org/ns#"
   xmlns:rdf="http://www.w3.org/1999/02/22-rdf-syntax-ns#"
   xmlns:svg="http://www.w3.org/2000/svg"
   xmlns="http://www.w3.org/2000/svg"
   xmlns:sodipodi="http://sodipodi.sourceforge.net/DTD/sodipodi-0.dtd"
   xmlns:inkscape="http://www.inkscape.org/namespaces/inkscape"
   width="33.61459mm"
   height="32.629646mm"
   viewBox="0 0 33.61459 32.629646"
   version="1.1"
   id="svg8"
   inkscape:version="0.92.1 r15371"
   sodipodi:docname="Cmok vector.svg">
  <defs
     id="defs2" />
  <sodipodi:namedview
     id="base"
     pagecolor="#ffffff"
     bordercolor="#666666"
     borderopacity="1.0"
     inkscape:pageopacity="0.0"
     inkscape:pageshadow="2"
     inkscape:zoom="1.4"
     inkscape:cx="230.48448"
     inkscape:cy="90.993972"
     inkscape:document-units="mm"
     inkscape:current-layer="layer1"
     showgrid="false"
     fit-margin-top="0"
     fit-margin-left="0"
     fit-margin-right="0"
     fit-margin-bottom="0"
     inkscape:window-width="1600"
     inkscape:window-height="838"
     inkscape:window-x="-8"
     inkscape:window-y="-8"
     inkscape:window-maximized="1" />
  <metadata
     id="metadata5">
    <rdf:RDF>
      <cc:Work
         rdf:about="">
        <dc:format>image/svg+xml</dc:format>
        <dc:type
           rdf:resource="http://purl.org/dc/dcmitype/StillImage" />
        <dc:title />
      </cc:Work>
    </rdf:RDF>
  </metadata>
  <g
     inkscape:label="Layer 1"
     inkscape:groupmode="layer"
     id="layer1"
     transform="translate(-85.942165,-123.24232)">
    <g
       id="g4581">
      <path
         sodipodi:nodetypes="ccccccccccssccscccccscccscsccscccsscscccsccccccsssscscssccsccssscccscccsccc"
         inkscape:connector-curvature="0"
         id="path4500"
         d="m 116.66253,151.06912 c -0.0804,-0.69885 -0.15019,-0.73075 -1.76563,-0.80711 -1.35264,-0.0639 -1.70614,-0.17217 -1.80569,-0.55284 -0.11477,-0.43889 -0.78979,-0.48606 -9.27539,-0.6481 -5.033374,-0.0961 -10.888313,-0.18313 -13.010968,-0.19336 -2.122655,-0.0102 -4.037966,-0.0995 -4.256248,-0.19844 -0.664199,-0.30097 -0.541202,-1.09278 0.198593,-1.27845 0.527257,-0.13234 19.332053,0.0477 27.450363,0.2628 l 1.5875,0.0421 -0.0299,-2.38125 c -0.0165,-1.30969 -0.12337,-3.97127 -0.23758,-5.91464 -0.26536,-4.51529 0.20607,-8.76973 0.97177,-8.76973 0.4363,0 0.48743,0.25194 0.49672,2.44739 0.01,2.34167 0.0265,2.41025 0.3841,1.5875 0.20556,-0.47294 0.43743,-0.85989 0.51526,-0.85989 0.23745,0 0.8494,1.65678 1.02612,2.77812 l 0.1668,1.05833 -0.47784,-1.05447 c -0.45664,-1.0077 -0.48495,-1.0253 -0.63834,-0.39687 -0.0883,0.36168 -0.31311,1.63986 -0.49961,2.84041 -0.21199,1.36462 -0.46085,2.18281 -0.66393,2.18281 -0.23573,0 -0.31131,0.63503 -0.27554,2.3151 0.0271,1.27331 -0.0439,2.76159 -0.15791,3.3073 l -0.17176,0.89178 1.2489,0.1004 c 0.70412,0.0566 1.51096,0.16571 1.78794,0.36825 0.78479,0.57385 0.0816,1.21925 -1.3284,1.21925 h -1.12573 l 0.1342,1.19063 c 0.0738,0.65484 0.0671,1.19062 -0.0149,1.19062 -0.082,0 -0.1868,-0.32742 -0.23285,-0.7276 z m -13.41025,-5.7126 c -0.32761,-0.39475 -1.03121,-3.55002 -1.41062,-6.32594 -0.15414,-1.12779 -0.35769,-2.05052 -0.45233,-2.05052 -0.0946,0 -0.44772,0.92273 -0.78463,2.05052 -1.408272,4.71405 -1.781191,5.71439 -2.233691,5.99182 -0.709453,0.43497 -1.073597,-0.22752 -1.768059,-3.21663 -0.329263,-1.41721 -0.731893,-3.09547 -0.894732,-3.72944 l -0.296072,-1.15269 -0.750117,3.53394 c -0.412564,1.94366 -0.803065,3.80692 -0.86778,4.14058 -0.06471,0.33365 -0.304726,0.67842 -0.533357,0.76615 -0.464859,0.17839 -0.95136,-0.40042 -0.764687,-0.90977 0.170213,-0.46445 -0.03549,-0.41406 -0.890616,0.21816 -0.408332,0.30189 -1.213,0.61202 -1.788151,0.68916 -1.312595,0.17606 -2.394791,-0.64461 -3.287682,-2.49317 -0.526996,-1.09105 -0.604783,-1.64553 -0.584835,-4.16884 0.01888,-2.38809 0.146443,-3.2802 0.710791,-4.97086 0.904252,-2.70894 1.814314,-4.4688 2.975659,-5.75427 0.816646,-0.90393 1.100488,-1.04883 2.054479,-1.04883 0.608806,0 1.249796,-0.14288 1.424421,-0.3175 0.566457,-0.56646 0.957028,0.21941 1.047804,2.10829 0.125912,2.62 -0.550734,3.22397 -1.382271,1.23383 -0.267855,-0.64107 -0.549136,-0.90795 -0.956937,-0.90795 -1.200388,0 -3.149321,2.92373 -4.14466,6.2177 -0.571151,1.89017 -0.564822,5.3299 0.01179,6.40831 0.953092,1.78251 2.130415,1.82439 3.938931,0.14013 1.558881,-1.45178 1.937381,-2.21864 2.33411,-4.72907 0.41057,-2.598 0.812803,-3.79644 1.375227,-4.09744 0.412095,-0.22055 0.548217,-0.12293 0.851897,0.61092 0.198788,0.48037 0.498434,1.76637 0.66588,2.85778 0.431616,2.81325 1.081099,5.55625 1.315602,5.55625 0.204684,0 1.250114,-3.39465 2.100656,-6.82112 0.26299,-1.05948 0.62584,-2.07151 0.80634,-2.24896 0.50462,-0.49608 1.29082,0.64724 1.46893,2.13617 0.24583,2.05491 0.9752,6.17565 1.36592,7.7171 0.20141,0.79456 0.36619,1.70456 0.36619,2.02222 0,0.67447 -0.63498,1.01198 -1.0234,0.54397 z m 12.14521,-16.03196 c -0.38905,-0.72695 -0.35392,-5.38778 0.0436,-5.78531 0.57926,-0.57925 0.95114,-0.3308 1.37742,0.92026 0.4982,1.46213 0.56287,4.60071 0.10425,5.05933 -0.47675,0.47674 -1.2166,0.38251 -1.52528,-0.19428 z"
         style="fill:#000000;stroke-width:1" />
      <text
         transform="scale(0.86654415,1.1540093)"
         id="text4504"
         y="113.26869"
         x="109.09017"
         style="font-style:normal;font-variant:normal;font-weight:normal;font-stretch:normal;font-size:4.32740593px;line-height:125%;font-family:'Comic Sans MS';-inkscape-font-specification:'Comic Sans MS';letter-spacing:0px;word-spacing:0px;fill:#000000;fill-opacity:1;stroke:none;stroke-width:0.26458332px;stroke-linecap:butt;stroke-linejoin:miter;stroke-opacity:1"
         xml:space="preserve"><tspan
           style="font-style:normal;font-variant:normal;font-weight:normal;font-stretch:normal;font-family:'Comic Sans MS';-inkscape-font-specification:'Comic Sans MS';stroke-width:0.26458332px"
           y="113.26869"
           x="109.09017"
           id="tspan4502"
           sodipodi:role="line">hrońmy</tspan></text>
      <text
         transform="scale(0.84680186,1.1809138)"
         id="text4504-1"
         y="115.73868"
         x="121.67893"
         style="font-style:normal;font-variant:normal;font-weight:normal;font-stretch:normal;font-size:3.77806354px;line-height:125%;font-family:'Comic Sans MS';-inkscape-font-specification:'Comic Sans MS';letter-spacing:0px;word-spacing:0px;fill:#000000;fill-opacity:1;stroke:none;stroke-width:0.26458332px;stroke-linecap:butt;stroke-linejoin:miter;stroke-opacity:1"
         xml:space="preserve"><tspan
           style="font-style:normal;font-variant:normal;font-weight:normal;font-stretch:normal;font-family:'Comic Sans MS';-inkscape-font-specification:'Comic Sans MS';stroke-width:0.26458332px"
           y="115.73868"
           x="121.67893"
           id="tspan4502-9"
           sodipodi:role="line">okradła</tspan></text>
      <text
         transform="scale(0.9562387,1.045764)"
         id="text4504-1-9"
         y="139.40149"
         x="109.13488"
         style="font-style:normal;font-variant:normal;font-weight:normal;font-stretch:normal;font-size:7.94062662px;line-height:125%;font-family:'Comic Sans MS';-inkscape-font-specification:'Comic Sans MS';letter-spacing:0px;word-spacing:0px;fill:#000000;fill-opacity:1;stroke:none;stroke-width:0.26458338px;stroke-linecap:butt;stroke-linejoin:miter;stroke-opacity:1"
         xml:space="preserve"><tspan
           style="font-style:normal;font-variant:normal;font-weight:normal;font-stretch:normal;font-family:'Comic Sans MS';-inkscape-font-specification:'Comic Sans MS';stroke-width:0.26458338px"
           y="139.40149"
           x="109.13488"
           id="tspan4502-9-7"
           sodipodi:role="line">O</tspan></text>
      <text
         transform="scale(0.88984858,1.1237867)"
         id="text4564"
         y="129.79898"
         x="123.51189"
         style="font-style:normal;font-variant:normal;font-weight:normal;font-stretch:normal;font-size:7.99954557px;line-height:125%;font-family:Arial;-inkscape-font-specification:Arial;letter-spacing:0px;word-spacing:0px;fill:#000000;fill-opacity:1;stroke:none;stroke-width:0.26458332px;stroke-linecap:butt;stroke-linejoin:miter;stroke-opacity:1"
         xml:space="preserve"><tspan
           style="font-style:normal;font-variant:normal;font-weight:normal;font-stretch:normal;font-family:'Comic Sans MS';-inkscape-font-specification:'Comic Sans MS';stroke-width:0.26458332px"
           y="129.79898"
           x="123.51189"
           id="tspan4562"
           sodipodi:role="line">K</tspan></text>
      <text
         transform="scale(0.99252736,1.0075289)"
         id="text4568"
         y="154.68369"
         x="87.21508"
         style="font-style:normal;font-variant:normal;font-weight:normal;font-stretch:normal;font-size:1.92577887px;line-height:125%;font-family:Arial;-inkscape-font-specification:Arial;letter-spacing:0px;word-spacing:0px;fill:#000000;fill-opacity:1;stroke:none;stroke-width:0.26458332px;stroke-linecap:butt;stroke-linejoin:miter;stroke-opacity:1"
         xml:space="preserve"><tspan
           style="font-size:1.92577887px;stroke-width:0.26458332px"
           y="154.68369"
           x="87.21508"
           id="tspan4566"
           sodipodi:role="line">CENTRUM OCHRONY MOKRADEŁ</tspan></text>
    </g>
  </g>
</svg>
