<?xml version="1.0" encoding="UTF-8"?>
<!DOCTYPE svg PUBLIC "-//W3C//DTD SVG 1.1//EN" "http://www.w3.org/Graphics/SVG/1.1/DTD/svg11.dtd">
<svg xmlns="http://www.w3.org/2000/svg" version="1.1" width="111px" height="25px" style="shape-rendering:geometricPrecision; text-rendering:geometricPrecision; image-rendering:optimizeQuality; fill-rule:evenodd; clip-rule:evenodd" xmlns:xlink="http://www.w3.org/1999/xlink">
<g><path style="opacity:0.821" fill="#1c2b4e" d="M 48.5,-0.5 C 50.1667,-0.5 51.8333,-0.5 53.5,-0.5C 53.5391,1.3588 52.7058,2.69213 51,3.5C 50.8333,5 50.6667,6.5 50.5,8C 50.5931,11.283 51.4265,14.1163 53,16.5C 50.0944,18.0671 47.9277,17.4005 46.5,14.5C 45.1667,10.1667 45.1667,5.83333 46.5,1.5C 47.5,1.16667 48.1667,0.5 48.5,-0.5 Z"/></g>
<g><path style="opacity:0.834" fill="#1d2b4d" d="M -0.5,0.5 C 6.32804,1.91557 9.32804,6.2489 8.5,13.5C 6.99862,14.3584 5.99862,16.1917 5.5,19C 8.44709,19.1118 9.78042,20.6118 9.5,23.5C 6.5,23.5 3.5,23.5 0.5,23.5C 0.318717,20.6029 0.65205,17.7695 1.5,15C 1.16389,13.9701 0.497222,13.4701 -0.5,13.5C -0.5,12.5 -0.5,11.5 -0.5,10.5C 2.2436,9.92833 3.07693,8.26166 2,5.5C 1.32924,4.74756 0.495904,4.41423 -0.5,4.5C -0.5,3.16667 -0.5,1.83333 -0.5,0.5 Z"/></g>
<g><path style="opacity:0.845" fill="#1d2c4f" d="M 44.5,-0.5 C 45.1667,-0.5 45.8333,-0.5 46.5,-0.5C 46.5,0.166667 46.5,0.833333 46.5,1.5C 42.5458,3.04331 41.8792,5.37664 44.5,8.5C 42.9137,10.1727 42.2471,12.1727 42.5,14.5C 43.8333,14.5 45.1667,14.5 46.5,14.5C 46.5,15.5 46.5,16.5 46.5,17.5C 43.8333,17.8333 41.1667,18.1667 38.5,18.5C 38.3339,12.8236 38.5006,7.15688 39,1.5C 40.9483,0.890644 42.7816,0.223978 44.5,-0.5 Z"/></g>
<g><path style="opacity:0.891" fill="#1c2c4e" d="M 56.5,-0.5 C 57.8333,-0.5 59.1667,-0.5 60.5,-0.5C 61.9187,0.451145 63.5853,0.784479 65.5,0.5C 64.8161,4.72352 63.8161,8.89018 62.5,13C 64.5764,14.2438 65.5764,16.0771 65.5,18.5C 62.4377,18.1558 59.4377,17.4891 56.5,16.5C 57.6544,12.8829 58.6544,9.2162 59.5,5.5C 58.1786,3.66819 57.1786,1.66819 56.5,-0.5 Z"/></g>
<g><path style="opacity:0.835" fill="#1c2a4e" d="M 88.5,20.5 C 86.715,12.2536 89.0483,5.5869 95.5,0.5C 96.731,1.65066 96.731,2.81732 95.5,4C 97,4.83333 98.1667,6 99,7.5C 99.6667,11.5 99.6667,15.5 99,19.5C 97.3088,23.2127 94.4755,24.3794 90.5,23C 89.9341,22.0053 89.2674,21.172 88.5,20.5 Z M 93.5,8.5 C 94.6453,12.3112 94.8119,16.3112 94,20.5C 93.5,18.5 93,16.5 92.5,14.5C 93.1556,12.5466 93.4889,10.5466 93.5,8.5 Z"/></g>
<g><path style="opacity:0.452" fill="#1d294d" d="M 106.5,-0.5 C 107.833,-0.5 109.167,-0.5 110.5,-0.5C 110.5,1.16667 110.5,2.83333 110.5,4.5C 109.167,4.5 107.833,4.5 106.5,4.5C 106.5,2.83333 106.5,1.16667 106.5,-0.5 Z"/></g>
<g><path style="opacity:0.853" fill="#1d2b4f" d="M 66.5,1.5 C 70.1299,1.76458 73.2966,3.09792 76,5.5C 76.7722,9.88969 76.6055,14.223 75.5,18.5C 72.6281,19.7825 69.7947,19.7825 67,18.5C 66.5006,12.8431 66.3339,7.17645 66.5,1.5 Z M 70.5,5.5 C 72.8475,8.97439 73.0142,12.6411 71,16.5C 70.5014,12.8484 70.3347,9.18174 70.5,5.5 Z"/></g>
<g><path style="opacity:0.752" fill="#1d2b50" d="M 103.5,24.5 C 101.833,24.5 100.167,24.5 98.5,24.5C 98.9867,23.5266 99.4867,22.5266 100,21.5C 100.333,15.5 100.667,9.5 101,3.5C 102.11,1.96317 103.61,1.2965 105.5,1.5C 106.019,9.34446 105.353,17.0111 103.5,24.5 Z"/></g>
<g><path style="opacity:0.831" fill="#1c2b4e" d="M 35.5,1.5 C 36.4896,7.31004 36.8229,13.31 36.5,19.5C 35.1667,19.5 33.8333,19.5 32.5,19.5C 32.6659,14.4889 32.4993,9.48892 32,4.5C 30.6388,10.1397 29.4721,15.8063 28.5,21.5C 27.5,21.5 26.5,21.5 25.5,21.5C 24.2708,13.8017 23.2708,14.1351 22.5,22.5C 21.5,22.5 20.5,22.5 19.5,22.5C 17.7903,9.47831 16.4569,9.81164 15.5,23.5C 14.1667,23.5 12.8333,23.5 11.5,23.5C 11.4635,17.3504 10.4635,11.3504 8.5,5.5C 8.66667,4.83333 8.83333,4.16667 9,3.5C 10.3561,4.38017 11.8561,4.71351 13.5,4.5C 13.2308,6.42865 13.7308,8.09531 15,9.5C 15.7655,5.63757 17.9322,4.63757 21.5,6.5C 22,7.5 22.5,8.5 23,9.5C 25.0985,2.8469 26.7651,3.18024 28,10.5C 28.3108,8.44397 28.8108,6.44397 29.5,4.5C 31.7451,3.79177 33.7451,2.79177 35.5,1.5 Z"/></g>
<g><path style="opacity:0.856" fill="#1c2d4e" d="M 88.5,20.5 C 88.719,21.675 88.3857,22.675 87.5,23.5C 86.2638,22.7542 84.9305,22.4208 83.5,22.5C 83.3781,18.1617 83.0447,17.8284 82.5,21.5C 80.8333,21.5 79.1667,21.5 77.5,21.5C 77.3338,15.4908 77.5005,9.49076 78,3.5C 81.1386,4.07892 84.1386,5.07892 87,6.5C 87.9439,9.34707 87.4439,11.8471 85.5,14C 86.9265,16.0454 87.9265,18.2121 88.5,20.5 Z"/></g>
</svg>
