<?xml version="1.0" encoding="UTF-8"?>
<!DOCTYPE svg PUBLIC "-//W3C//DTD SVG 1.1//EN" "http://www.w3.org/Graphics/SVG/1.1/DTD/svg11.dtd">
<svg xmlns="http://www.w3.org/2000/svg" version="1.1" width="1200px" height="627px" style="shape-rendering:geometricPrecision; text-rendering:geometricPrecision; image-rendering:optimizeQuality; fill-rule:evenodd; clip-rule:evenodd" xmlns:xlink="http://www.w3.org/1999/xlink">
<g><path style="opacity:1" fill="#445e81" d="M 571.5,199.5 C 565.131,199.347 558.797,199.68 552.5,200.5C 555.865,198.961 559.531,198.294 563.5,198.5C 566.355,198.503 569.022,198.836 571.5,199.5 Z"/></g>
<g><path style="opacity:1" fill="#05305d" d="M 571.5,199.5 C 580.031,200.761 587.031,204.595 592.5,211C 589.712,216.073 586.546,220.906 583,225.5C 578.507,216.227 571.674,213.727 562.5,218C 560.273,220.564 558.439,223.397 557,226.5C 553.291,238.049 551.791,249.882 552.5,262C 552.571,274.881 553.405,287.715 555,300.5C 556.056,306.668 557.723,312.668 560,318.5C 566.672,327.978 573.005,327.645 579,317.5C 579.543,315.369 580.376,313.369 581.5,311.5C 586.707,314.06 591.707,316.893 596.5,320C 588.38,338.065 574.38,346.398 554.5,345C 545.624,341.986 538.791,336.486 534,328.5C 522.554,305.159 518.22,280.492 521,254.5C 521.687,239.104 526.354,225.104 535,212.5C 539.763,206.874 545.596,202.874 552.5,200.5C 558.797,199.68 565.131,199.347 571.5,199.5 Z"/></g>
<g><path style="opacity:1" fill="#09315d" d="M 967.5,198.5 C 968.833,198.5 970.167,198.5 971.5,198.5C 974.645,207.443 974.145,216.11 970,224.5C 967.108,227.057 963.941,229.224 960.5,231C 952.833,234.167 945.167,237.333 937.5,240.5C 936.5,240.167 935.833,239.5 935.5,238.5C 945.81,224.859 956.477,211.526 967.5,198.5 Z"/></g>
<g><path style="opacity:1" fill="#d5dde4" d="M 631.5,203.5 C 630.167,203.5 628.833,203.5 627.5,203.5C 627.5,210.167 627.5,216.833 627.5,223.5C 628.833,223.5 630.167,223.5 631.5,223.5C 630.081,224.451 628.415,224.784 626.5,224.5C 626.5,217.167 626.5,209.833 626.5,202.5C 628.415,202.216 630.081,202.549 631.5,203.5 Z"/></g>
<g><path style="opacity:1" fill="#06305d" d="M 631.5,203.5 C 652.715,207.261 674.048,211.261 695.5,215.5C 684.355,253.753 673.688,292.086 663.5,330.5C 672.883,331.751 682.216,331.751 691.5,330.5C 692.165,334.151 692.499,337.985 692.5,342C 692.49,346.229 691.823,350.062 690.5,353.5C 669.006,349.287 647.339,346.287 625.5,344.5C 635.793,305.021 646.459,265.688 657.5,226.5C 649.004,224.188 640.337,223.188 631.5,223.5C 630.167,223.5 628.833,223.5 627.5,223.5C 627.5,216.833 627.5,210.167 627.5,203.5C 628.833,203.5 630.167,203.5 631.5,203.5 Z"/></g>
<g><path style="opacity:1" fill="#04305d" d="M 510.5,206.5 C 512.167,206.5 513.833,206.5 515.5,206.5C 515.5,210.167 515.5,213.833 515.5,217.5C 515.5,219.833 515.5,222.167 515.5,224.5C 505.622,223.86 495.955,224.86 486.5,227.5C 485.504,241.323 485.171,255.323 485.5,269.5C 486.791,269.737 487.791,269.404 488.5,268.5C 493.608,268.038 498.608,267.038 503.5,265.5C 504.663,270.802 504.829,276.136 504,281.5C 503.5,282.667 502.667,283.5 501.5,284C 496.146,285.172 490.813,286.339 485.5,287.5C 485.5,302.5 485.5,317.5 485.5,332.5C 496.201,331.734 506.535,329.401 516.5,325.5C 517.497,332.468 517.83,339.468 517.5,346.5C 495.555,348.494 473.888,352.161 452.5,357.5C 451.794,355.234 451.961,352.901 453,350.5C 453.667,307.833 453.667,265.167 453,222.5C 450.711,219.91 451.211,218.077 454.5,217C 472.997,212.529 491.663,209.029 510.5,206.5 Z"/></g>
<g><path style="opacity:1" fill="#7c92aa" d="M 510.5,206.5 C 512.265,205.539 514.265,205.205 516.5,205.5C 516.817,209.702 516.483,213.702 515.5,217.5C 515.5,213.833 515.5,210.167 515.5,206.5C 513.833,206.5 512.167,206.5 510.5,206.5 Z"/></g>
<g><path style="opacity:1" fill="#b6c3d0" d="M 114.5,211.5 C 112.53,219.769 111.864,228.435 112.5,237.5C 116.702,237.183 120.702,237.517 124.5,238.5C 120.167,238.5 115.833,238.5 111.5,238.5C 111.5,229.167 111.5,219.833 111.5,210.5C 112.791,210.263 113.791,210.596 114.5,211.5 Z"/></g>
<g><path style="opacity:1" fill="#05305d" d="M 114.5,211.5 C 136.783,221.15 159.449,229.817 182.5,237.5C 179.316,258.791 176.316,280.125 173.5,301.5C 178.865,301.867 184.198,302.533 189.5,303.5C 187.959,308.121 186.626,312.788 185.5,317.5C 180.398,318.121 175.398,318.787 170.5,319.5C 167.518,338.102 164.851,356.769 162.5,375.5C 173.016,376.071 183.35,375.071 193.5,372.5C 193.5,380.167 193.5,387.833 193.5,395.5C 187.5,395.5 181.5,395.5 175.5,395.5C 157.797,394.997 140.131,393.997 122.5,392.5C 126.258,366.86 129.925,341.193 133.5,315.5C 129.833,315.5 126.167,315.5 122.5,315.5C 120.5,314.833 118.5,314.167 116.5,313.5C 117.22,308.671 118.554,304.004 120.5,299.5C 125.792,298.505 131.125,298.172 136.5,298.5C 139.519,280.203 142.019,261.87 144,243.5C 137.599,241.519 131.099,239.852 124.5,238.5C 120.702,237.517 116.702,237.183 112.5,237.5C 111.864,228.435 112.53,219.769 114.5,211.5 Z"/></g>
<g><path style="opacity:1" fill="#133460" d="M 1078.5,199.5 C 1092.59,197.625 1102.09,203.292 1107,216.5C 1107.78,235.717 1098.62,244.884 1079.5,244C 1064.66,237.143 1060.16,225.976 1066,210.5C 1069.13,205.54 1073.29,201.873 1078.5,199.5 Z"/></g>
<g><path style="opacity:1" fill="#f2f4f7" d="M 1080.5,204.5 C 1095.76,204.043 1102.6,211.376 1101,226.5C 1096.36,238.376 1088.19,241.876 1076.5,237C 1069.15,229.543 1067.65,221.043 1072,211.5C 1074.44,208.546 1077.27,206.213 1080.5,204.5 Z"/></g>
<g><path style="opacity:1" fill="#11325f" d="M 1094.5,231.5 C 1093.08,232.451 1091.41,232.784 1089.5,232.5C 1089.11,229.794 1088.11,227.461 1086.5,225.5C 1085.08,224.549 1083.41,224.216 1081.5,224.5C 1081.5,227.167 1081.5,229.833 1081.5,232.5C 1080.17,232.5 1078.83,232.5 1077.5,232.5C 1077.5,225.5 1077.5,218.5 1077.5,211.5C 1080.98,210.357 1084.64,210.19 1088.5,211C 1095.56,213.799 1096.23,217.632 1090.5,222.5C 1093.72,224.613 1095.05,227.613 1094.5,231.5 Z"/></g>
<g><path style="opacity:1" fill="#f6f8f9" d="M 1082.5,215.5 C 1084.2,215.34 1085.87,215.506 1087.5,216C 1088.83,217.333 1088.83,218.667 1087.5,220C 1085.87,220.494 1084.2,220.66 1082.5,220.5C 1082.5,218.833 1082.5,217.167 1082.5,215.5 Z"/></g>
<g><path style="opacity:1" fill="#04305d" d="M 707.5,218.5 C 707.735,217.903 708.235,217.57 709,217.5C 726.215,222.096 743.381,226.929 760.5,232C 778.993,240.17 789.493,254.337 792,274.5C 793.119,295.24 792.453,315.907 790,336.5C 787.572,349.883 780.405,359.716 768.5,366C 762.224,367.424 755.891,367.758 749.5,367C 735.763,364.255 722.263,360.755 709,356.5C 710.64,311.971 710.973,267.304 710,222.5C 709.8,220.68 708.966,219.347 707.5,218.5 Z"/></g>
<g><path style="opacity:1" fill="#05305d" d="M 1047.5,216.5 C 1048.38,216.369 1049.04,216.702 1049.5,217.5C 1048.76,219.541 1047.93,221.541 1047,223.5C 1046.97,274.198 1046.31,324.865 1045,375.5C 1042.03,394.134 1031.53,406.301 1013.5,412C 1008.75,412.855 1004.08,414.021 999.5,415.5C 998.682,413.892 998.015,412.225 997.5,410.5C 1007.54,401.425 1013.04,390.091 1014,376.5C 1014.67,330.5 1014.67,284.5 1014,238.5C 1013.17,236.833 1012.33,235.167 1011.5,233.5C 1023.82,228.336 1035.82,222.669 1047.5,216.5 Z"/></g>
<g><path style="opacity:1" fill="#04305d" d="M 434.5,221.5 C 435.043,221.56 435.376,221.893 435.5,222.5C 434.902,223.795 434.402,225.128 434,226.5C 433.333,269.5 433.333,312.5 434,355.5C 434.833,357.167 435.667,358.833 436.5,360.5C 424.211,363.655 411.878,366.655 399.5,369.5C 399.838,367.146 400.338,364.813 401,362.5C 401.667,321.167 401.667,279.833 401,238.5C 400.433,235.832 399.933,233.166 399.5,230.5C 411.418,228.076 423.084,225.076 434.5,221.5 Z"/></g>
<g><path style="opacity:1" fill="#768ca5" d="M 1077.5,211.5 C 1077.5,218.5 1077.5,225.5 1077.5,232.5C 1078.83,232.5 1080.17,232.5 1081.5,232.5C 1081.5,229.833 1081.5,227.167 1081.5,224.5C 1083.41,224.216 1085.08,224.549 1086.5,225.5C 1085.17,225.5 1083.83,225.5 1082.5,225.5C 1082.5,228.167 1082.5,230.833 1082.5,233.5C 1080.5,233.5 1078.5,233.5 1076.5,233.5C 1076.18,225.981 1076.51,218.648 1077.5,211.5 Z"/></g>
<g><path style="opacity:1" fill="#889ab0" d="M 486.5,227.5 C 485.851,241.541 486.518,255.208 488.5,268.5C 487.791,269.404 486.791,269.737 485.5,269.5C 485.171,255.323 485.504,241.323 486.5,227.5 Z"/></g>
<g><path style="opacity:1" fill="#6f849f" d="M 1094.5,231.5 C 1095.04,231.56 1095.38,231.893 1095.5,232.5C 1093.36,233.793 1091.36,233.793 1089.5,232.5C 1091.41,232.784 1093.08,232.451 1094.5,231.5 Z"/></g>
<g><path style="opacity:1" fill="#05305d" d="M 328.5,313.5 C 327.076,315.515 326.41,317.848 326.5,320.5C 319.261,342.895 312.594,365.561 306.5,388.5C 301.516,389.275 296.516,389.942 291.5,390.5C 285.543,350.426 279.043,310.426 272,270.5C 264.797,292.443 257.797,314.443 251,336.5C 250.333,353.833 250.333,371.167 251,388.5C 251.311,390.556 251.811,392.556 252.5,394.5C 245.866,395.497 239.2,395.83 232.5,395.5C 227.056,396.108 222.056,395.442 217.5,393.5C 218.598,375.52 218.765,357.52 218,339.5C 211.118,313.295 203.952,287.295 196.5,261.5C 196.59,258.848 195.924,256.515 194.5,254.5C 194.477,252.073 193.977,249.74 193,247.5C 191.146,244.387 189.48,241.387 188,238.5C 200.883,242.846 214.049,246.179 227.5,248.5C 232.506,270.19 237.672,291.857 243,313.5C 249.434,293.706 254.934,273.706 259.5,253.5C 270.55,253.536 281.55,252.87 292.5,251.5C 295.5,251.5 298.5,251.5 301.5,251.5C 301.263,252.791 301.596,253.791 302.5,254.5C 305.256,277.545 308.422,300.545 312,323.5C 318.666,297.837 325.166,272.17 331.5,246.5C 335.179,246.276 338.846,245.942 342.5,245.5C 343.959,245.433 345.292,245.766 346.5,246.5C 351.291,269.54 356.291,292.54 361.5,315.5C 366.972,289.612 371.806,263.612 376,237.5C 382.004,235.29 388.171,233.624 394.5,232.5C 383.148,281.09 371.981,329.757 361,378.5C 355.912,379.765 350.746,380.765 345.5,381.5C 340.788,358.318 335.288,335.318 329,312.5C 328.601,312.728 328.435,313.062 328.5,313.5 Z"/></g>
<g><path style="opacity:1" fill="#04305d" d="M 866.5,318.5 C 863.833,319.167 863.833,319.833 866.5,320.5C 876.02,323.186 882.52,329.186 886,338.5C 889.588,354.437 892.921,370.437 896,386.5C 896.229,389.458 897.396,391.958 899.5,394C 889.743,393.653 880.077,392.32 870.5,390C 866.612,387.778 863.779,384.612 862,380.5C 859.76,365.819 857.426,351.152 855,336.5C 853.252,330.584 849.419,326.917 843.5,325.5C 842.791,324.596 841.791,324.263 840.5,324.5C 840.17,343.008 840.503,361.341 841.5,379.5C 841.421,380.93 841.754,382.264 842.5,383.5C 841.5,383.833 840.5,384.167 839.5,384.5C 828.798,382.626 818.131,380.626 807.5,378.5C 807.933,375.834 808.433,373.168 809,370.5C 809.667,328.5 809.667,286.5 809,244.5C 808.5,243.5 808,242.5 807.5,241.5C 825.174,243.001 842.841,245.501 860.5,249C 887.795,256.085 897.629,273.252 890,300.5C 885.473,310.865 877.64,316.865 866.5,318.5 Z"/></g>
<g><path style="opacity:1" fill="#254971" d="M 743.5,243.5 C 741.507,277.484 740.84,311.817 741.5,346.5C 740.502,312.004 740.168,277.337 740.5,242.5C 741.791,242.263 742.791,242.596 743.5,243.5 Z"/></g>
<g><path style="opacity:1" fill="#fbfbfc" d="M 743.5,243.5 C 750.57,245.572 754.903,250.238 756.5,257.5C 756.41,260.152 757.076,262.485 758.5,264.5C 759.167,275.662 759.5,286.995 759.5,298.5C 759.617,311.545 759.117,324.545 758,337.5C 755.862,346.653 750.362,349.653 741.5,346.5C 740.84,311.817 741.507,277.484 743.5,243.5 Z"/></g>
<g><path style="opacity:1" fill="#7e93ab" d="M 342.5,245.5 C 342.917,244.876 343.584,244.543 344.5,244.5C 345.713,244.747 346.38,245.414 346.5,246.5C 345.292,245.766 343.959,245.433 342.5,245.5 Z"/></g>
<g><path style="opacity:1" fill="#04305d" d="M 947.5,245.5 C 975.093,242.582 990.926,254.915 995,282.5C 997.973,304.751 998.306,327.085 996,349.5C 993.773,361.184 989.773,372.184 984,382.5C 971.648,397.088 956.148,401.921 937.5,397C 927.45,392.949 919.95,386.115 915,376.5C 907.734,358.902 904.567,340.569 905.5,321.5C 904.788,302.979 908.288,285.312 916,268.5C 923.598,256.718 934.098,249.051 947.5,245.5 Z"/></g>
<g><path style="opacity:1" fill="#899cb1" d="M 292.5,251.5 C 295.625,250.521 298.958,250.187 302.5,250.5C 302.5,251.833 302.5,253.167 302.5,254.5C 301.596,253.791 301.263,252.791 301.5,251.5C 298.5,251.5 295.5,251.5 292.5,251.5 Z"/></g>
<g><path style="opacity:1" fill="#aebcca" d="M 194.5,254.5 C 195.924,256.515 196.59,258.848 196.5,261.5C 195.076,259.485 194.41,257.152 194.5,254.5 Z"/></g>
<g><path style="opacity:1" fill="#fbfcfc" d="M 842.5,261.5 C 855.226,265.083 861.226,273.583 860.5,287C 861.228,295.111 858.895,302.111 853.5,308C 849.413,308.762 845.413,308.596 841.5,307.5C 841.17,291.991 841.504,276.658 842.5,261.5 Z"/></g>
<g><path style="opacity:1" fill="#7288a2" d="M 842.5,261.5 C 841.504,276.658 841.17,291.991 841.5,307.5C 840.173,291.995 840.173,276.328 841.5,260.5C 842.107,260.624 842.44,260.957 842.5,261.5 Z"/></g>
<g><path style="opacity:1" fill="#a6b5c5" d="M 756.5,257.5 C 757.924,259.515 758.59,261.848 758.5,264.5C 757.076,262.485 756.41,260.152 756.5,257.5 Z"/></g>
<g><path style="opacity:1" fill="#f7f8fa" d="M 949.5,266.5 C 955.468,265.297 959.301,267.631 961,273.5C 963.996,288.16 965.163,302.994 964.5,318C 964.807,333.573 963.974,349.073 962,364.5C 961.605,371.88 957.938,376.547 951,378.5C 948.594,378.297 946.594,377.297 945,375.5C 941.083,368.009 939.083,360.009 939,351.5C 938.149,329.478 938.482,307.478 940,285.5C 940.627,277.718 943.794,271.385 949.5,266.5 Z"/></g>
<g><path style="opacity:1" fill="#68809b" d="M 116.5,313.5 C 118.5,314.167 120.5,314.833 122.5,315.5C 120.076,315.808 117.743,315.474 115.5,314.5C 115.624,313.893 115.957,313.56 116.5,313.5 Z"/></g>
<g><path style="opacity:1" fill="#aab8c8" d="M 328.5,313.5 C 328.59,316.152 327.924,318.485 326.5,320.5C 326.41,317.848 327.076,315.515 328.5,313.5 Z"/></g>
<g><path style="opacity:1" fill="#92a3b7" d="M 185.5,317.5 C 180.944,319.442 175.944,320.108 170.5,319.5C 175.398,318.787 180.398,318.121 185.5,317.5 Z"/></g>
<g><path style="opacity:1" fill="#758aa4" d="M 866.5,318.5 C 866.5,319.167 866.5,319.833 866.5,320.5C 863.833,319.833 863.833,319.167 866.5,318.5 Z"/></g>
<g><path style="opacity:1" fill="#7288a3" d="M 843.5,325.5 C 841.513,343.136 840.847,361.136 841.5,379.5C 840.503,361.341 840.17,343.008 840.5,324.5C 841.791,324.263 842.791,324.596 843.5,325.5 Z"/></g>
<g><path style="opacity:1" fill="#b5c2d0" d="M 691.5,330.5 C 691.56,329.957 691.893,329.624 692.5,329.5C 693.498,337.807 693.831,346.14 693.5,354.5C 692.209,354.737 691.209,354.404 690.5,353.5C 691.823,350.062 692.49,346.229 692.5,342C 692.499,337.985 692.165,334.151 691.5,330.5 Z"/></g>
<g><path style="opacity:1" fill="#889bb1" d="M 193.5,372.5 C 194.492,380.316 194.826,388.316 194.5,396.5C 187.978,396.823 181.645,396.49 175.5,395.5C 181.5,395.5 187.5,395.5 193.5,395.5C 193.5,387.833 193.5,380.167 193.5,372.5 Z"/></g>
<g><path style="opacity:1" fill="#8a9cb2" d="M 217.5,393.5 C 222.056,395.442 227.056,396.108 232.5,395.5C 227.36,396.488 222.026,396.821 216.5,396.5C 216.263,395.209 216.596,394.209 217.5,393.5 Z"/></g>
</svg>
